<svg version="1.1" id="Calque_1" xmlns="http://www.w3.org/2000/svg" xmlns:xlink="http://www.w3.org/1999/xlink" x="0px" y="0px"
	 viewBox="0 0 508.497 103.57" enable-background="new 0 0 508.497 103.57"
	 xml:space="preserve">
<path fill="#2D73A0" d="M477.61,48.086l-3.819-5.393h-6.401V37.19l-3.595,0.112v5.279l-19.881,0.337l-11.905,12.13l-5.729-0.225
	v-4.83l-2.134-0.562v-7.188l-5.167-0.448v-6.571h-5.391l-0.449,6.684h-4.718l-9.321,13.028l-3.482,0.449l-0.674-18.909L386.993,0
	l-9.121,37.038l-0.562,9.138h-3.37l-11.704-6.5l-15.7,8.297l-4.83,0.337V86.61l-17.971,2.583h-23.699V75.041H273.08V58.418
	l-7.638-10.108l-3.145-0.111v14.376l-15.837-0.113l-14.377-14.938l-13.927,14.938h-9.66v-7.282h-5.728l-2.808-3.5v-8.76l-1.91-2.246
	l-4.717-0.113v13.142l-9.098-11.119l-13.28,12.597v14.583l-9.295,0.226V56.958l-10.558,0.337v21.341h-10.67l-0.113-15.837h4.718
	l-16.062-15.612l-6.514,0.112V39.1l-3.707,0.113v7.749H97.191l-4.344-5.054h-4.791V31.724h-4.793v9.584H51.515L43.13,52.69
	L32.946,41.908V31.724h-5.989v9.584H16.772L0,57.481v46.089h508.497V48.086H477.61z M52.569,62.176h-5v-4h5V62.176z M61.569,62.176
	h-5v-4h5V62.176z M127.569,67.176h-5v-4h5V67.176z M136.569,67.176h-5v-4h5V67.176z M180.569,60.176h-5v-4h5V60.176z M268.72,62.194
	h-3.15v-5.019h3.15V62.194z M352.569,68.176h-5v-4h5V68.176z M352.569,62.176h-5v-4h5V62.176z M352.569,56.176h-5.012
	c0.092-2.364,2.266-4.258,4.883-4.258c0.027,0,0.129,0.004,0.129,0.004V56.176z M360.569,68.176h-5v-4h5V68.176z M360.569,62.176h-5
	v-4h5V62.176z M355.569,56.176v-4.254c0,0,0.104-0.004,0.132-0.004c2.682,0,4.909,1.894,5.003,4.258H355.569z M441.569,61.176h-5v-4
	h5V61.176z M450.569,61.176h-5v-4h5V61.176z"/>
</svg>

